<?xml version="1.0" encoding="iso-8859-1"?>
<!-- Generator: Adobe Illustrator 20.1.0, SVG Export Plug-In . SVG Version: 6.00 Build 0)  -->
<svg xmlns="http://www.w3.org/2000/svg" xmlns:xlink="http://www.w3.org/1999/xlink" version="1.1" id="&#1057;&#1083;&#1086;&#1081;_1" x="0px" y="0px" viewBox="0 0 64 64" style="enable-background:new 0 0 64 64;" xml:space="preserve">
<linearGradient id="SVGID_1__43614" gradientUnits="userSpaceOnUse" x1="32" y1="16.8333" x2="32" y2="21.0008" spreadMethod="reflect">
	<stop offset="0" style="stop-color:#6DC7FF"/>
	<stop offset="1" style="stop-color:#E6ABFF"/>
</linearGradient>
<circle style="fill:url(#SVGID_1__43614);" cx="32" cy="19" r="2"/>
<linearGradient id="SVGID_2__43614" gradientUnits="userSpaceOnUse" x1="32" y1="6.75" x2="32" y2="58.2617" spreadMethod="reflect">
	<stop offset="0" style="stop-color:#1A6DFF"/>
	<stop offset="1" style="stop-color:#C822FF"/>
</linearGradient>
<path style="fill:url(#SVGID_2__43614);" d="M53,21c0-1.103-0.897-2-2-2h-4c-1.103,0-2,0.897-2,2c-2.757,0-5,2.243-5,5  c0,0.552-0.448,1-1,1h-2c0-1.654-1.346-3-3-3h-1v-1.142c1.72-0.447,3-1.999,3-3.858c0-2.206-1.794-4-4-4s-4,1.794-4,4  c0,1.859,1.28,3.411,3,3.858V24h-1c-1.654,0-3,1.346-3,3h-2c-0.552,0-1-0.448-1-1c0-2.757-2.243-5-5-5c0-1.103-0.897-2-2-2h-4  c-1.103,0-2,0.897-2,2c-2.757,0-5,2.243-5,5v21.726c0,4.885,3.691,8.949,8.403,9.255c2.513,0.159,4.916-0.693,6.751-2.413  C22.963,52.872,24,50.479,24,48v-2c0-0.552,0.448-1,1-1h14c0.552,0,1,0.448,1,1v1.726c0,4.885,3.691,8.949,8.403,9.255  c0.202,0.013,0.404,0.02,0.605,0.02c2.296,0,4.459-0.852,6.146-2.433C56.963,52.872,58,50.479,58,48V26C58,23.243,55.757,21,53,21z   M30,19c0-1.103,0.897-2,2-2s2,0.897,2,2s-0.897,2-2,2S30,20.103,30,19z M30,26h4c0.552,0,1,0.448,1,1h-6C29,26.448,29.448,26,30,26  z M56,48c0,1.956-0.786,3.771-2.214,5.108c-1.427,1.338-3.296,2.015-5.254,1.876C44.869,54.747,42,51.559,42,47.726V46  c0-1.654-1.346-3-3-3H25c-1.654,0-3,1.346-3,3v2c0,1.956-0.786,3.771-2.214,5.108s-3.292,2.015-5.254,1.876  C10.869,54.747,8,51.559,8,47.726V26c0-1.654,1.346-3,3-3h8c1.654,0,3,1.346,3,3s1.346,3,3,3h14c1.654,0,3-1.346,3-3s1.346-3,3-3h8  c1.654,0,3,1.346,3,3V48z"/>
<linearGradient id="SVGID_3__43614" gradientUnits="userSpaceOnUse" x1="32" y1="6.75" x2="32" y2="58.2617" spreadMethod="reflect">
	<stop offset="0" style="stop-color:#1A6DFF"/>
	<stop offset="1" style="stop-color:#C822FF"/>
</linearGradient>
<path style="fill:url(#SVGID_3__43614);" d="M25.435,14.427l1.641,1.145C28.199,13.961,30.04,13,32,13s3.801,0.961,4.925,2.571  l1.641-1.145C37.066,12.281,34.612,11,32,11S26.934,12.281,25.435,14.427z"/>
<linearGradient id="SVGID_4__43614" gradientUnits="userSpaceOnUse" x1="31.9995" y1="6.75" x2="31.9995" y2="58.2617" spreadMethod="reflect">
	<stop offset="0" style="stop-color:#1A6DFF"/>
	<stop offset="1" style="stop-color:#C822FF"/>
</linearGradient>
<path style="fill:url(#SVGID_4__43614);" d="M32,9c3.249,0,6.308,1.588,8.182,4.249l1.635-1.152C39.569,8.905,35.899,7,32,7  c-3.9,0-7.57,1.906-9.817,5.099l1.635,1.15C25.69,10.589,28.75,9,32,9z"/>
<linearGradient id="SVGID_5__43614" gradientUnits="userSpaceOnUse" x1="15" y1="6.75" x2="15" y2="58.2617" spreadMethod="reflect">
	<stop offset="0" style="stop-color:#1A6DFF"/>
	<stop offset="1" style="stop-color:#C822FF"/>
</linearGradient>
<polygon style="fill:url(#SVGID_5__43614);" points="16,31 14,31 14,35 10,35 10,37 14,37 14,41 16,41 16,37 20,37 20,35 16,35 "/>
<linearGradient id="SVGID_6__43614" gradientUnits="userSpaceOnUse" x1="49" y1="6.75" x2="49" y2="58.2617" spreadMethod="reflect">
	<stop offset="0" style="stop-color:#1A6DFF"/>
	<stop offset="1" style="stop-color:#C822FF"/>
</linearGradient>
<circle style="fill:url(#SVGID_6__43614);" cx="49" cy="32" r="2"/>
<linearGradient id="SVGID_7__43614" gradientUnits="userSpaceOnUse" x1="49" y1="6.75" x2="49" y2="58.2617" spreadMethod="reflect">
	<stop offset="0" style="stop-color:#1A6DFF"/>
	<stop offset="1" style="stop-color:#C822FF"/>
</linearGradient>
<circle style="fill:url(#SVGID_7__43614);" cx="49" cy="40" r="2"/>
<linearGradient id="SVGID_8__43614" gradientUnits="userSpaceOnUse" x1="53" y1="6.75" x2="53" y2="58.2617" spreadMethod="reflect">
	<stop offset="0" style="stop-color:#1A6DFF"/>
	<stop offset="1" style="stop-color:#C822FF"/>
</linearGradient>
<circle style="fill:url(#SVGID_8__43614);" cx="53" cy="36" r="2"/>
<linearGradient id="SVGID_9__43614" gradientUnits="userSpaceOnUse" x1="45" y1="6.75" x2="45" y2="58.2617" spreadMethod="reflect">
	<stop offset="0" style="stop-color:#1A6DFF"/>
	<stop offset="1" style="stop-color:#C822FF"/>
</linearGradient>
<circle style="fill:url(#SVGID_9__43614);" cx="45" cy="36" r="2"/>
<linearGradient id="SVGID_10__43614" gradientUnits="userSpaceOnUse" x1="27" y1="36.6667" x2="27" y2="39.4179" spreadMethod="reflect">
	<stop offset="0" style="stop-color:#6DC7FF"/>
	<stop offset="1" style="stop-color:#E6ABFF"/>
</linearGradient>
<path style="fill:url(#SVGID_10__43614);" d="M30,38c0,0.552-0.448,1-1,1h-4c-0.552,0-1-0.448-1-1l0,0c0-0.552,0.448-1,1-1h4  C29.552,37,30,37.448,30,38L30,38z"/>
<linearGradient id="SVGID_11__43614" gradientUnits="userSpaceOnUse" x1="36" y1="36.6667" x2="36" y2="39.4179" spreadMethod="reflect">
	<stop offset="0" style="stop-color:#6DC7FF"/>
	<stop offset="1" style="stop-color:#E6ABFF"/>
</linearGradient>
<path style="fill:url(#SVGID_11__43614);" d="M39,38c0,0.552-0.448,1-1,1h-4c-0.552,0-1-0.448-1-1l0,0c0-0.552,0.448-1,1-1h4  C38.552,37,39,37.448,39,38L39,38z"/>
</svg>
